<mxfile host="app.diagrams.net" modified="2024-05-28T14:35:55.449Z" agent="Mozilla/5.0 (Macintosh; Intel Mac OS X 10_15_7) AppleWebKit/537.36 (KHTML, like Gecko) Chrome/125.0.0.0 Safari/537.36" etag="I0mwgc6LlAdLB2Na43WI" version="24.4.8" type="github">
  <diagram name="Страница — 1" id="6Fu15erCf7PdYgdU24q_">
    <mxGraphModel dx="1122" dy="907" grid="1" gridSize="10" guides="1" tooltips="1" connect="1" arrows="1" fold="1" page="1" pageScale="1" pageWidth="1169" pageHeight="827" math="0" shadow="0">
      <root>
        <mxCell id="0" />
        <mxCell id="1" parent="0" />
        <mxCell id="8zF0WLEV0abbjN1hOJyf-3" value="" style="edgeStyle=orthogonalEdgeStyle;rounded=0;orthogonalLoop=1;jettySize=auto;html=1;" edge="1" parent="1" source="8zF0WLEV0abbjN1hOJyf-1" target="8zF0WLEV0abbjN1hOJyf-2">
          <mxGeometry relative="1" as="geometry" />
        </mxCell>
        <mxCell id="8zF0WLEV0abbjN1hOJyf-1" value="Начало" style="ellipse;whiteSpace=wrap;html=1;" vertex="1" parent="1">
          <mxGeometry x="200" y="60" width="192" height="80" as="geometry" />
        </mxCell>
        <mxCell id="8zF0WLEV0abbjN1hOJyf-5" value="" style="edgeStyle=orthogonalEdgeStyle;rounded=0;orthogonalLoop=1;jettySize=auto;html=1;" edge="1" parent="1" source="8zF0WLEV0abbjN1hOJyf-2" target="8zF0WLEV0abbjN1hOJyf-4">
          <mxGeometry relative="1" as="geometry" />
        </mxCell>
        <mxCell id="8zF0WLEV0abbjN1hOJyf-2" value="Тип груза" style="whiteSpace=wrap;html=1;" vertex="1" parent="1">
          <mxGeometry x="236" y="180" width="120" height="60" as="geometry" />
        </mxCell>
        <mxCell id="8zF0WLEV0abbjN1hOJyf-9" value="" style="edgeStyle=orthogonalEdgeStyle;rounded=0;orthogonalLoop=1;jettySize=auto;html=1;" edge="1" parent="1" source="8zF0WLEV0abbjN1hOJyf-4" target="8zF0WLEV0abbjN1hOJyf-8">
          <mxGeometry relative="1" as="geometry" />
        </mxCell>
        <mxCell id="8zF0WLEV0abbjN1hOJyf-14" value="" style="edgeStyle=orthogonalEdgeStyle;rounded=0;orthogonalLoop=1;jettySize=auto;html=1;" edge="1" parent="1" source="8zF0WLEV0abbjN1hOJyf-4" target="8zF0WLEV0abbjN1hOJyf-13">
          <mxGeometry relative="1" as="geometry" />
        </mxCell>
        <mxCell id="8zF0WLEV0abbjN1hOJyf-4" value="Навалочный" style="rhombus;whiteSpace=wrap;html=1;" vertex="1" parent="1">
          <mxGeometry x="440" y="180" width="126" height="70" as="geometry" />
        </mxCell>
        <mxCell id="8zF0WLEV0abbjN1hOJyf-11" value="" style="edgeStyle=orthogonalEdgeStyle;rounded=0;orthogonalLoop=1;jettySize=auto;html=1;" edge="1" parent="1" source="8zF0WLEV0abbjN1hOJyf-8" target="8zF0WLEV0abbjN1hOJyf-10">
          <mxGeometry relative="1" as="geometry" />
        </mxCell>
        <mxCell id="8zF0WLEV0abbjN1hOJyf-17" value="" style="edgeStyle=orthogonalEdgeStyle;rounded=0;orthogonalLoop=1;jettySize=auto;html=1;" edge="1" parent="1" source="8zF0WLEV0abbjN1hOJyf-8" target="8zF0WLEV0abbjN1hOJyf-15">
          <mxGeometry relative="1" as="geometry" />
        </mxCell>
        <mxCell id="8zF0WLEV0abbjN1hOJyf-8" value="Штучный" style="rhombus;whiteSpace=wrap;html=1;" vertex="1" parent="1">
          <mxGeometry x="440" y="275" width="126" height="70" as="geometry" />
        </mxCell>
        <mxCell id="8zF0WLEV0abbjN1hOJyf-12" style="edgeStyle=orthogonalEdgeStyle;rounded=0;orthogonalLoop=1;jettySize=auto;html=1;" edge="1" parent="1" source="8zF0WLEV0abbjN1hOJyf-10">
          <mxGeometry relative="1" as="geometry">
            <mxPoint x="410" y="210" as="targetPoint" />
          </mxGeometry>
        </mxCell>
        <mxCell id="8zF0WLEV0abbjN1hOJyf-18" value="" style="edgeStyle=orthogonalEdgeStyle;rounded=0;orthogonalLoop=1;jettySize=auto;html=1;" edge="1" parent="1" source="8zF0WLEV0abbjN1hOJyf-10" target="8zF0WLEV0abbjN1hOJyf-16">
          <mxGeometry relative="1" as="geometry" />
        </mxCell>
        <mxCell id="8zF0WLEV0abbjN1hOJyf-10" value="Наливной" style="rhombus;whiteSpace=wrap;html=1;" vertex="1" parent="1">
          <mxGeometry x="440" y="375" width="126" height="70" as="geometry" />
        </mxCell>
        <mxCell id="8zF0WLEV0abbjN1hOJyf-23" style="edgeStyle=orthogonalEdgeStyle;rounded=0;orthogonalLoop=1;jettySize=auto;html=1;entryX=0;entryY=0;entryDx=0;entryDy=0;" edge="1" parent="1" source="8zF0WLEV0abbjN1hOJyf-13" target="8zF0WLEV0abbjN1hOJyf-22">
          <mxGeometry relative="1" as="geometry">
            <Array as="points">
              <mxPoint x="821" y="215" />
              <mxPoint x="821" y="273" />
              <mxPoint x="830" y="273" />
            </Array>
          </mxGeometry>
        </mxCell>
        <mxCell id="8zF0WLEV0abbjN1hOJyf-13" value="Тип кузова = Самосвальный" style="whiteSpace=wrap;html=1;" vertex="1" parent="1">
          <mxGeometry x="621" y="185" width="120" height="60" as="geometry" />
        </mxCell>
        <mxCell id="8zF0WLEV0abbjN1hOJyf-24" style="edgeStyle=orthogonalEdgeStyle;rounded=0;orthogonalLoop=1;jettySize=auto;html=1;" edge="1" parent="1" source="8zF0WLEV0abbjN1hOJyf-15" target="8zF0WLEV0abbjN1hOJyf-22">
          <mxGeometry relative="1" as="geometry" />
        </mxCell>
        <mxCell id="8zF0WLEV0abbjN1hOJyf-15" value="Тип кузова = фургон" style="whiteSpace=wrap;html=1;" vertex="1" parent="1">
          <mxGeometry x="621" y="280" width="120" height="60" as="geometry" />
        </mxCell>
        <mxCell id="8zF0WLEV0abbjN1hOJyf-16" value="Тип кузова = цистерна" style="whiteSpace=wrap;html=1;" vertex="1" parent="1">
          <mxGeometry x="621" y="380" width="120" height="60" as="geometry" />
        </mxCell>
        <mxCell id="8zF0WLEV0abbjN1hOJyf-19" value="нет" style="text;html=1;align=center;verticalAlign=middle;resizable=0;points=[];autosize=1;strokeColor=none;fillColor=none;" vertex="1" parent="1">
          <mxGeometry x="501" y="250" width="40" height="30" as="geometry" />
        </mxCell>
        <mxCell id="8zF0WLEV0abbjN1hOJyf-20" value="нет" style="text;html=1;align=center;verticalAlign=middle;resizable=0;points=[];autosize=1;strokeColor=none;fillColor=none;" vertex="1" parent="1">
          <mxGeometry x="501" y="350" width="40" height="30" as="geometry" />
        </mxCell>
        <mxCell id="8zF0WLEV0abbjN1hOJyf-21" value="нет" style="text;html=1;align=center;verticalAlign=middle;resizable=0;points=[];autosize=1;strokeColor=none;fillColor=none;" vertex="1" parent="1">
          <mxGeometry x="430" y="375" width="40" height="30" as="geometry" />
        </mxCell>
        <mxCell id="8zF0WLEV0abbjN1hOJyf-27" value="" style="edgeStyle=orthogonalEdgeStyle;rounded=0;orthogonalLoop=1;jettySize=auto;html=1;" edge="1" parent="1" source="8zF0WLEV0abbjN1hOJyf-22" target="8zF0WLEV0abbjN1hOJyf-26">
          <mxGeometry relative="1" as="geometry" />
        </mxCell>
        <mxCell id="8zF0WLEV0abbjN1hOJyf-22" value="Масса Груза" style="shape=parallelogram;perimeter=parallelogramPerimeter;whiteSpace=wrap;html=1;fixedSize=1;" vertex="1" parent="1">
          <mxGeometry x="820" y="265" width="125.71" height="55" as="geometry" />
        </mxCell>
        <mxCell id="8zF0WLEV0abbjN1hOJyf-25" style="edgeStyle=orthogonalEdgeStyle;rounded=0;orthogonalLoop=1;jettySize=auto;html=1;entryX=-0.005;entryY=0.873;entryDx=0;entryDy=0;entryPerimeter=0;" edge="1" parent="1" source="8zF0WLEV0abbjN1hOJyf-16" target="8zF0WLEV0abbjN1hOJyf-22">
          <mxGeometry relative="1" as="geometry" />
        </mxCell>
        <mxCell id="8zF0WLEV0abbjN1hOJyf-29" value="" style="edgeStyle=orthogonalEdgeStyle;rounded=0;orthogonalLoop=1;jettySize=auto;html=1;" edge="1" parent="1" source="8zF0WLEV0abbjN1hOJyf-26" target="8zF0WLEV0abbjN1hOJyf-28">
          <mxGeometry relative="1" as="geometry" />
        </mxCell>
        <mxCell id="8zF0WLEV0abbjN1hOJyf-26" value="Грузоподьемность ТС" style="whiteSpace=wrap;html=1;" vertex="1" parent="1">
          <mxGeometry x="822.855" y="355" width="120" height="60" as="geometry" />
        </mxCell>
        <mxCell id="8zF0WLEV0abbjN1hOJyf-31" value="" style="edgeStyle=orthogonalEdgeStyle;rounded=0;orthogonalLoop=1;jettySize=auto;html=1;" edge="1" parent="1" source="8zF0WLEV0abbjN1hOJyf-28" target="8zF0WLEV0abbjN1hOJyf-30">
          <mxGeometry relative="1" as="geometry" />
        </mxCell>
        <mxCell id="8zF0WLEV0abbjN1hOJyf-28" value="Объем груза" style="shape=parallelogram;perimeter=parallelogramPerimeter;whiteSpace=wrap;html=1;fixedSize=1;" vertex="1" parent="1">
          <mxGeometry x="822.855" y="455" width="120" height="60" as="geometry" />
        </mxCell>
        <mxCell id="8zF0WLEV0abbjN1hOJyf-33" value="" style="edgeStyle=orthogonalEdgeStyle;rounded=0;orthogonalLoop=1;jettySize=auto;html=1;" edge="1" parent="1" source="8zF0WLEV0abbjN1hOJyf-30" target="8zF0WLEV0abbjN1hOJyf-32">
          <mxGeometry relative="1" as="geometry" />
        </mxCell>
        <mxCell id="8zF0WLEV0abbjN1hOJyf-30" value="Объем кузова" style="whiteSpace=wrap;html=1;" vertex="1" parent="1">
          <mxGeometry x="822.855" y="555" width="120" height="60" as="geometry" />
        </mxCell>
        <mxCell id="8zF0WLEV0abbjN1hOJyf-32" value="Класс груза" style="shape=parallelogram;perimeter=parallelogramPerimeter;whiteSpace=wrap;html=1;fixedSize=1;" vertex="1" parent="1">
          <mxGeometry x="822.855" y="660" width="120" height="60" as="geometry" />
        </mxCell>
      </root>
    </mxGraphModel>
  </diagram>
</mxfile>
